<svg xmlns="http://www.w3.org/2000/svg" style="display:none" aria-hidden="true">
  <defs>

    <!-- Theme toggle -->
    <symbol id="icon-moon" viewBox="0 0 24 24" fill="none" stroke="currentColor" stroke-width="1.5" stroke-linecap="round" stroke-linejoin="round">
      <path d="M21.75 15.75A9 9 0 019 3 9.004 9.004 0 003 12a9 9 0 0018 0c0-.75-.094-1.477-.25-2.25z"/>
    </symbol>

    <symbol id="icon-sun" viewBox="0 0 24 24" fill="none" stroke="currentColor" stroke-width="1.5" stroke-linecap="round" stroke-linejoin="round">
      <path d="M12 3v1.5M12 19.5V21M4.219 4.219l1.06 1.06M18.72 18.72l1.06 1.06M3 12H1.5m21 0H21M4.219 19.781l1.06-1.06M18.72 5.28l1.06-1.06M12 7.5a4.5 4.5 0 100 9 4.5 4.5 0 000-9z"/>
    </symbol>

    <!-- Navigation arrows -->
    <symbol id="icon-arrow-right" viewBox="0 0 24 24" fill="none" stroke="currentColor" stroke-width="2" stroke-linecap="round" stroke-linejoin="round">
      <path d="M17 8l4 4m0 0l-4 4m4-4H3"/>
    </symbol>

    <symbol id="icon-chevron-left" viewBox="0 0 24 24" fill="none" stroke="currentColor" stroke-width="2" stroke-linecap="round" stroke-linejoin="round">
      <path d="M15 19l-7-7 7-7"/>
    </symbol>

    <symbol id="icon-chevron-right" viewBox="0 0 24 24" fill="none" stroke="currentColor" stroke-width="2" stroke-linecap="round" stroke-linejoin="round">
      <path d="M9 5l7 7-7 7"/>
    </symbol>

    <symbol id="icon-arrow-up" viewBox="0 0 24 24" fill="none" stroke="currentColor" stroke-width="2.5" stroke-linecap="round" stroke-linejoin="round">
      <path d="M5 10l7-7m0 0l7 7m-7-7v18"/>
    </symbol>

    <!-- Status icons -->
    <symbol id="icon-check" viewBox="0 0 24 24" fill="none" stroke="currentColor" stroke-width="2.5" stroke-linecap="round" stroke-linejoin="round">
      <path d="M5 13l4 4L19 7"/>
    </symbol>

    <symbol id="icon-x" viewBox="0 0 24 24" fill="none" stroke="currentColor" stroke-width="2.5" stroke-linecap="round" stroke-linejoin="round">
      <path d="M6 18L18 6M6 6l12 12"/>
    </symbol>

    <symbol id="icon-plus" viewBox="0 0 24 24" fill="none" stroke="currentColor" stroke-width="2.5" stroke-linecap="round" stroke-linejoin="round">
      <path d="M12 4v16m8-8H4"/>
    </symbol>

    <symbol id="icon-error-circle" viewBox="0 0 24 24" fill="none" stroke="currentColor" stroke-width="2" stroke-linecap="round" stroke-linejoin="round">
      <path d="M12 8v4m0 4h.01M21 12a9 9 0 11-18 0 9 9 0 0118 0z"/>
    </symbol>

    <symbol id="icon-send" viewBox="0 0 24 24" fill="none" stroke="currentColor" stroke-width="2" stroke-linecap="round" stroke-linejoin="round">
      <path d="M12 19l9 2-9-18-9 18 9-2zm0 0v-8"/>
    </symbol>

    <!-- Contact -->
    <symbol id="icon-phone" viewBox="0 0 24 24" fill="none" stroke="currentColor" stroke-width="1.5" stroke-linecap="round" stroke-linejoin="round">
      <path d="M3 5a2 2 0 012-2h3.28a1 1 0 01.948.684l1.498 4.493a1 1 0 01-.502 1.21l-2.257 1.13a11.042 11.042 0 005.516 5.516l1.13-2.257a1 1 0 011.21-.502l4.493 1.498a1 1 0 01.684.949V19a2 2 0 01-2 2h-1C9.716 21 3 14.284 3 6V5z"/>
    </symbol>

    <symbol id="icon-envelope" viewBox="0 0 24 24" fill="none" stroke="currentColor" stroke-width="1.5" stroke-linecap="round" stroke-linejoin="round">
      <path d="M3 8l7.89 5.26a2 2 0 002.22 0L21 8M5 19h14a2 2 0 002-2V7a2 2 0 00-2-2H5a2 2 0 00-2 2v10a2 2 0 002 2z"/>
    </symbol>

    <symbol id="icon-location" viewBox="0 0 24 24" fill="none" stroke="currentColor" stroke-width="1.5" stroke-linecap="round" stroke-linejoin="round">
      <path d="M17.657 16.657L13.414 20.9a1.998 1.998 0 01-2.827 0l-4.244-4.243a8 8 0 1111.314 0z"/>
      <path d="M15 11a3 3 0 11-6 0 3 3 0 016 0z"/>
    </symbol>

    <symbol id="icon-clock" viewBox="0 0 24 24" fill="none" stroke="currentColor" stroke-width="1.5" stroke-linecap="round" stroke-linejoin="round">
      <path d="M12 8v4l3 3m6-3a9 9 0 11-18 0 9 9 0 0118 0z"/>
    </symbol>

    <symbol id="icon-calendar" viewBox="0 0 24 24" fill="none" stroke="currentColor" stroke-width="2" stroke-linecap="round" stroke-linejoin="round">
      <path d="M8 7V3m8 4V3m-9 8h10M5 21h14a2 2 0 002-2V7a2 2 0 00-2-2H5a2 2 0 00-2 2v12a2 2 0 002 2z"/>
    </symbol>

    <!-- Social -->
    <symbol id="icon-linkedin" viewBox="0 0 24 24" fill="currentColor">
      <path d="M16 8a6 6 0 016 6v7h-4v-7a2 2 0 00-2-2 2 2 0 00-2 2v7h-4v-7a6 6 0 016-6zM2 9h4v12H2z"/>
      <circle cx="4" cy="4" r="2"/>
    </symbol>

    <symbol id="icon-twitter" viewBox="0 0 24 24" fill="currentColor">
      <path d="M18.244 2.25h3.308l-7.227 8.26 8.502 11.24H16.17l-5.214-6.817L4.99 21.75H1.68l7.73-8.835L1.254 2.25H8.08l4.713 6.231zm-1.161 17.52h1.833L7.084 4.126H5.117z"/>
    </symbol>

    <symbol id="icon-facebook" viewBox="0 0 24 24" fill="currentColor">
      <path fill-rule="evenodd" d="M22 12c0-5.523-4.477-10-10-10S2 6.477 2 12c0 4.991 3.657 9.128 8.438 9.878v-6.987h-2.54V12h2.54V9.797c0-2.506 1.492-3.89 3.777-3.89 1.094 0 2.238.195 2.238.195v2.46h-1.26c-1.243 0-1.63.771-1.63 1.562V12h2.773l-.443 2.89h-2.33v6.988C18.343 21.128 22 16.991 22 12z" clip-rule="evenodd"/>
    </symbol>

    <!-- Content -->
    <symbol id="icon-star" viewBox="0 0 24 24" fill="currentColor">
      <path d="M12 2l3.09 6.26L22 9.27l-5 4.87 1.18 6.88L12 17.77l-6.18 3.25L7 14.14 2 9.27l6.91-1.01L12 2z"/>
    </symbol>

    <symbol id="icon-quote" viewBox="0 0 24 24" fill="currentColor">
      <path d="M14.017 21v-7.391c0-5.704 3.731-9.57 8.983-10.609l.995 2.151c-2.432.917-3.995 3.638-3.995 5.849h4v10h-9.983zm-14.017 0v-7.391c0-5.704 3.748-9.57 9-10.609l.996 2.151c-2.433.917-3.996 3.638-3.996 5.849h3.983v10h-9.983z"/>
    </symbol>

  </defs>
</svg>
